<?xml version="1.0" encoding="UTF-8" standalone="no"?><!DOCTYPE svg PUBLIC "-//W3C//DTD SVG 1.1//EN" "http://www.w3.org/Graphics/SVG/1.1/DTD/svg11.dtd"><svg width="100%" height="100%" viewBox="0 0 97 60" version="1.1" xmlns="http://www.w3.org/2000/svg" xmlns:xlink="http://www.w3.org/1999/xlink" xml:space="preserve" xmlns:serif="http://www.serif.com/" style="fill-rule:evenodd;clip-rule:evenodd;stroke-linejoin:round;stroke-miterlimit:2;"><g><rect x="29.435" y="18.591" width="2.1" height="9.672" style="fill:#f7f7f7;fill-rule:nonzero;stroke:#ececec;stroke-opacity:0.28;stroke-width:0.24px;"/><path d="M38.774,28.263l-1.994,0l0,-3.576c0,-0.756 -0.042,-1.245 -0.127,-1.468c-0.086,-0.222 -0.224,-0.394 -0.415,-0.517c-0.192,-0.124 -0.423,-0.185 -0.692,-0.185c-0.345,-0 -0.655,0.088 -0.93,0.264c-0.274,0.176 -0.462,0.409 -0.564,0.699c-0.101,0.29 -0.152,0.827 -0.152,1.61l-0,3.173l-1.994,0l0,-7.006l1.852,-0l0,1.029c0.657,-0.792 1.485,-1.188 2.483,-1.188c0.44,0 0.842,0.074 1.206,0.221c0.364,0.148 0.64,0.336 0.827,0.564c0.186,0.229 0.316,0.489 0.39,0.779c0.073,0.29 0.11,0.706 0.11,1.247l-0,4.354Z" style="fill:#f7f7f7;fill-rule:nonzero;stroke:#ececec;stroke-opacity:0.28;stroke-width:0.24px;"/><path d="M41.558,28.263l-3.036,-7.006l2.092,-0l1.419,3.576l0.412,1.194c0.109,-0.304 0.177,-0.504 0.206,-0.601c0.066,-0.198 0.137,-0.395 0.212,-0.593l1.433,-3.576l2.051,-0l-2.994,7.006l-1.795,0Z" style="fill:#f7f7f7;fill-rule:nonzero;stroke:#ececec;stroke-opacity:0.28;stroke-width:0.24px;"/><path d="M45.797,24.661c-0,-0.616 0.163,-1.212 0.489,-1.788c0.327,-0.576 0.789,-1.016 1.387,-1.319c0.598,-0.304 1.266,-0.456 2.004,-0.456c1.14,0 2.074,0.344 2.802,1.033c0.729,0.688 1.093,1.558 1.093,2.609c-0,1.06 -0.368,1.939 -1.103,2.636c-0.736,0.697 -1.661,1.046 -2.778,1.046c-0.69,-0 -1.349,-0.145 -1.975,-0.436c-0.627,-0.29 -1.103,-0.716 -1.43,-1.276c-0.326,-0.561 -0.489,-1.244 -0.489,-2.049Zm2.043,0.099c-0,0.695 0.177,1.227 0.532,1.597c0.355,0.369 0.792,0.554 1.312,0.554c0.521,-0 0.957,-0.185 1.309,-0.554c0.353,-0.37 0.529,-0.906 0.529,-1.61c-0,-0.686 -0.176,-1.214 -0.529,-1.584c-0.352,-0.369 -0.788,-0.554 -1.309,-0.554c-0.52,0 -0.957,0.185 -1.312,0.554c-0.355,0.37 -0.532,0.902 -0.532,1.597Z" style="fill:#f7f7f7;fill-rule:nonzero;stroke:#ececec;stroke-opacity:0.28;stroke-width:0.24px;"/><path d="M53.824,20.307l-0,-1.716l1.993,0l0,1.716l-1.993,-0Zm-0,7.956l-0,-7.006l1.993,-0l0,7.006l-1.993,0Z" style="fill:#f7f7f7;fill-rule:nonzero;stroke:#ececec;stroke-opacity:0.28;stroke-width:0.24px;"/><path d="M63.12,23.328l-1.965,0.33c-0.066,-0.365 -0.216,-0.64 -0.45,-0.824c-0.234,-0.185 -0.538,-0.278 -0.912,-0.278c-0.496,0 -0.892,0.16 -1.188,0.479c-0.296,0.319 -0.443,0.852 -0.443,1.6c-0,0.831 0.15,1.418 0.45,1.761c0.3,0.343 0.704,0.515 1.21,0.515c0.378,-0 0.688,-0.1 0.929,-0.3c0.241,-0.2 0.411,-0.545 0.511,-1.033l1.958,0.31c-0.204,0.836 -0.594,1.467 -1.171,1.894c-0.577,0.426 -1.35,0.64 -2.32,0.64c-1.102,-0 -1.98,-0.324 -2.635,-0.97c-0.655,-0.647 -0.983,-1.542 -0.983,-2.685c0,-1.157 0.329,-2.058 0.986,-2.702c0.658,-0.645 1.547,-0.967 2.668,-0.967c0.917,0 1.647,0.184 2.188,0.551c0.542,0.367 0.931,0.927 1.167,1.679Z" style="fill:#f7f7f7;fill-rule:nonzero;stroke:#ececec;stroke-opacity:0.28;stroke-width:0.24px;"/><path d="M68.562,26.033l1.986,0.31c-0.255,0.678 -0.659,1.194 -1.21,1.548c-0.551,0.354 -1.24,0.531 -2.068,0.531c-1.31,-0 -2.279,-0.398 -2.908,-1.194c-0.497,-0.638 -0.745,-1.443 -0.745,-2.415c-0,-1.161 0.326,-2.071 0.979,-2.728c0.653,-0.658 1.478,-0.987 2.476,-0.987c1.121,0 2.005,0.344 2.653,1.033c0.648,0.688 0.958,1.743 0.929,3.163l-4.994,0c0.014,0.55 0.175,0.978 0.482,1.284c0.308,0.305 0.691,0.458 1.15,0.458c0.312,0 0.574,-0.079 0.787,-0.237c0.213,-0.159 0.374,-0.414 0.483,-0.766Zm0.113,-1.873c-0.014,-0.537 -0.163,-0.945 -0.447,-1.224c-0.284,-0.28 -0.629,-0.419 -1.036,-0.419c-0.435,-0 -0.794,0.147 -1.078,0.442c-0.284,0.295 -0.423,0.695 -0.418,1.201l2.979,-0Z" style="fill:#f7f7f7;fill-rule:nonzero;stroke:#ececec;stroke-opacity:0.28;stroke-width:0.24px;"/><path d="M28.851,35.347l2.044,-0.185c0.123,0.638 0.372,1.107 0.748,1.406c0.376,0.299 0.883,0.448 1.522,0.448c0.676,0 1.186,-0.133 1.529,-0.399c0.342,-0.266 0.514,-0.577 0.514,-0.933c-0,-0.229 -0.072,-0.424 -0.217,-0.584c-0.144,-0.161 -0.396,-0.3 -0.755,-0.419c-0.246,-0.079 -0.806,-0.22 -1.681,-0.422c-1.126,-0.26 -1.916,-0.579 -2.37,-0.957c-0.638,-0.532 -0.958,-1.181 -0.958,-1.946c0,-0.493 0.151,-0.954 0.451,-1.383c0.3,-0.429 0.733,-0.755 1.298,-0.979c0.565,-0.225 1.248,-0.337 2.047,-0.337c1.305,0 2.288,0.266 2.947,0.798c0.66,0.533 1.007,1.243 1.04,2.131l-2.1,0.086c-0.09,-0.497 -0.283,-0.854 -0.578,-1.072c-0.296,-0.218 -0.739,-0.327 -1.33,-0.327c-0.611,0 -1.088,0.117 -1.433,0.35c-0.223,0.15 -0.334,0.35 -0.334,0.601c0,0.228 0.104,0.424 0.312,0.587c0.265,0.206 0.908,0.422 1.93,0.646c1.021,0.225 1.777,0.457 2.266,0.696c0.49,0.24 0.873,0.568 1.15,0.983c0.276,0.416 0.415,0.93 0.415,1.541c-0,0.554 -0.166,1.073 -0.497,1.557c-0.331,0.484 -0.799,0.843 -1.405,1.079c-0.605,0.235 -1.359,0.353 -2.263,0.353c-1.314,-0 -2.324,-0.283 -3.029,-0.848c-0.705,-0.565 -1.125,-1.389 -1.263,-2.471Z" style="fill:#f7f7f7;fill-rule:nonzero;stroke:#ececec;stroke-opacity:0.28;stroke-width:0.24px;"/><path d="M37.101,31.487l2.121,0l1.802,4.975l1.759,-4.975l2.065,0l-2.66,6.743l-0.476,1.221c-0.175,0.409 -0.341,0.721 -0.5,0.937c-0.158,0.215 -0.34,0.39 -0.546,0.524c-0.206,0.134 -0.459,0.239 -0.759,0.314c-0.301,0.074 -0.64,0.112 -1.018,0.112c-0.383,-0 -0.759,-0.038 -1.128,-0.112l-0.178,-1.452c0.312,0.057 0.594,0.086 0.845,0.086c0.463,-0 0.806,-0.126 1.028,-0.379c0.223,-0.253 0.393,-0.576 0.511,-0.967l-2.866,-7.027Z" style="fill:#f7f7f7;fill-rule:nonzero;stroke:#ececec;stroke-opacity:0.28;stroke-width:0.24px;"/><path d="M51.67,38.494l-1.993,0l-0,-3.576c-0,-0.756 -0.043,-1.246 -0.128,-1.468c-0.085,-0.222 -0.223,-0.394 -0.415,-0.518c-0.191,-0.123 -0.422,-0.184 -0.692,-0.184c-0.345,-0 -0.655,0.088 -0.929,0.264c-0.274,0.175 -0.462,0.409 -0.564,0.699c-0.102,0.29 -0.152,0.827 -0.152,1.61l-0,3.173l-1.994,0l0,-7.007l1.852,0l-0,1.03c0.657,-0.792 1.485,-1.188 2.483,-1.188c0.439,0 0.841,0.074 1.206,0.221c0.364,0.147 0.639,0.336 0.826,0.564c0.187,0.229 0.317,0.488 0.39,0.779c0.074,0.29 0.11,0.706 0.11,1.247l0,4.354Z" style="fill:#f7f7f7;fill-rule:nonzero;stroke:#ececec;stroke-opacity:0.28;stroke-width:0.24px;"/><path d="M58.662,33.559l-1.965,0.33c-0.067,-0.365 -0.217,-0.64 -0.451,-0.825c-0.234,-0.184 -0.538,-0.277 -0.911,-0.277c-0.497,0 -0.893,0.16 -1.189,0.479c-0.295,0.318 -0.443,0.852 -0.443,1.599c-0,0.832 0.15,1.419 0.45,1.762c0.301,0.343 0.704,0.515 1.21,0.515c0.378,-0 0.688,-0.1 0.929,-0.3c0.242,-0.201 0.412,-0.545 0.511,-1.033l1.958,0.31c-0.203,0.836 -0.593,1.467 -1.17,1.894c-0.577,0.426 -1.351,0.64 -2.32,0.64c-1.102,-0 -1.981,-0.324 -2.636,-0.97c-0.655,-0.647 -0.982,-1.542 -0.982,-2.686c-0,-1.156 0.328,-2.057 0.986,-2.701c0.657,-0.645 1.546,-0.967 2.667,-0.967c0.918,0 1.647,0.184 2.189,0.551c0.541,0.367 0.93,0.927 1.167,1.679Z" style="fill:#f7f7f7;fill-rule:nonzero;stroke:#ececec;stroke-opacity:0.28;stroke-width:0.24px;"/></g><path d="M87.268,21.874l0.746,5.576l-5.561,-0.845l4.815,-4.731Z" style="fill:#f7f7f7;"/><path d="M9.062,27.45c-0,-0 16.534,-18.185 38.807,-19.293c11.523,-0.574 24.991,4.42 37.622,16.725" style="fill:none;stroke:#f7f7f7;stroke-width:1.5px;stroke-linecap:round;stroke-miterlimit:1.5;"/><path d="M8.37,35.584l-0.258,-5.619l5.467,1.325l-5.209,4.294Z" style="fill:#f7f7f7;"/><path d="M87.065,29.965c-0,-0 -16.534,20.538 -38.807,21.859c-11.594,0.688 -25.158,-4.334 -37.856,-19.081" style="fill:none;stroke:#f7f7f7;stroke-width:1.5px;stroke-linecap:round;stroke-miterlimit:1.5;"/></svg>