<?xml version="1.0" encoding="UTF-8" standalone="no"?><!DOCTYPE svg PUBLIC "-//W3C//DTD SVG 1.1//EN" "http://www.w3.org/Graphics/SVG/1.1/DTD/svg11.dtd"><svg width="100%" height="100%" viewBox="0 0 257 147" version="1.1" xmlns="http://www.w3.org/2000/svg" xmlns:xlink="http://www.w3.org/1999/xlink" xml:space="preserve" xmlns:serif="http://www.serif.com/" style="fill-rule:evenodd;clip-rule:evenodd;stroke-linejoin:round;stroke-miterlimit:2;"><rect x="74.474" y="73.712" width="5.6" height="25.793" style="fill:#f1f2f6;fill-rule:nonzero;stroke:#f1f2f6;stroke-opacity:0.28;stroke-width:0.64px;"/><path d="M99.376,99.504l-5.316,0l-0,-9.536c-0,-2.017 -0.114,-3.322 -0.341,-3.914c-0.227,-0.593 -0.596,-1.053 -1.107,-1.381c-0.51,-0.329 -1.125,-0.493 -1.844,-0.493c-0.921,0 -1.747,0.235 -2.478,0.704c-0.732,0.469 -1.233,1.091 -1.504,1.865c-0.272,0.774 -0.407,2.205 -0.407,4.293l-0,8.462l-5.316,0l-0,-18.684l4.937,-0l0,2.744c1.754,-2.111 3.961,-3.167 6.622,-3.167c1.173,0 2.245,0.197 3.216,0.59c0.971,0.393 1.706,0.894 2.204,1.504c0.498,0.61 0.845,1.302 1.04,2.076c0.196,0.774 0.294,1.883 0.294,3.325l-0,11.612Z" style="fill:#f1f2f6;fill-rule:nonzero;stroke:#f1f2f6;stroke-opacity:0.28;stroke-width:0.64px;"/><path d="M106.8,99.504l-8.097,-18.684l5.581,-0l3.784,9.535l1.097,3.185c0.29,-0.809 0.473,-1.343 0.549,-1.601c0.176,-0.528 0.365,-1.056 0.567,-1.584l3.822,-9.535l5.467,-0l-7.983,18.684l-4.787,0Z" style="fill:#f1f2f6;fill-rule:nonzero;stroke:#f1f2f6;stroke-opacity:0.28;stroke-width:0.64px;"/><path d="M118.103,89.898c0,-1.642 0.436,-3.231 1.306,-4.768c0.87,-1.536 2.103,-2.709 3.698,-3.519c1.596,-0.809 3.377,-1.214 5.345,-1.214c3.039,0 5.53,0.918 7.472,2.754c1.942,1.835 2.914,4.155 2.914,6.958c-0,2.827 -0.981,5.17 -2.942,7.029c-1.961,1.859 -4.43,2.789 -7.407,2.789c-1.841,-0 -3.597,-0.387 -5.268,-1.162c-1.671,-0.774 -2.942,-1.909 -3.812,-3.404c-0.87,-1.496 -1.306,-3.317 -1.306,-5.463Zm5.449,0.264c-0,1.853 0.473,3.272 1.419,4.258c0.946,0.985 2.112,1.478 3.499,1.478c1.388,-0 2.551,-0.493 3.491,-1.478c0.939,-0.986 1.409,-2.417 1.409,-4.293c0,-1.83 -0.47,-3.238 -1.409,-4.223c-0.94,-0.985 -2.103,-1.478 -3.491,-1.478c-1.387,0 -2.553,0.493 -3.499,1.478c-0.946,0.985 -1.419,2.405 -1.419,4.258Z" style="fill:#f1f2f6;fill-rule:nonzero;stroke:#f1f2f6;stroke-opacity:0.28;stroke-width:0.64px;"/><path d="M139.509,78.286l-0,-4.574l5.316,-0l-0,4.574l-5.316,0Zm-0,21.218l-0,-18.684l5.316,-0l-0,18.684l-5.316,0Z" style="fill:#f1f2f6;fill-rule:nonzero;stroke:#f1f2f6;stroke-opacity:0.28;stroke-width:0.64px;"/><path d="M164.3,86.344l-5.24,0.88c-0.177,-0.974 -0.577,-1.707 -1.201,-2.199c-0.625,-0.493 -1.435,-0.739 -2.431,-0.739c-1.325,-0 -2.381,0.425 -3.169,1.275c-0.788,0.851 -1.182,2.273 -1.182,4.267c-0,2.216 0.4,3.782 1.201,4.697c0.801,0.915 1.876,1.373 3.225,1.373c1.009,-0 1.835,-0.267 2.479,-0.801c0.643,-0.534 1.097,-1.451 1.362,-2.753l5.221,0.827c-0.542,2.228 -1.583,3.911 -3.121,5.049c-1.539,1.138 -3.601,1.707 -6.187,1.707c-2.938,-0 -5.281,-0.863 -7.028,-2.587c-1.746,-1.724 -2.62,-4.111 -2.62,-7.16c0,-3.085 0.877,-5.487 2.63,-7.205c1.753,-1.719 4.124,-2.578 7.113,-2.578c2.447,0 4.392,0.49 5.836,1.469c1.444,0.98 2.482,2.472 3.112,4.478Z" style="fill:#f1f2f6;fill-rule:nonzero;stroke:#f1f2f6;stroke-opacity:0.28;stroke-width:0.64px;"/><path d="M178.81,93.558l5.297,0.826c-0.681,1.807 -1.756,3.182 -3.226,4.126c-1.469,0.944 -3.307,1.417 -5.514,1.417c-3.494,-0 -6.079,-1.062 -7.757,-3.185c-1.324,-1.701 -1.986,-3.847 -1.986,-6.439c-0,-3.097 0.87,-5.522 2.611,-7.275c1.74,-1.754 3.941,-2.631 6.602,-2.631c2.989,0 5.348,0.918 7.075,2.754c1.728,1.835 2.554,4.647 2.479,8.436l-13.319,0c0.038,1.466 0.467,2.607 1.287,3.422c0.82,0.815 1.841,1.223 3.065,1.223c0.832,-0 1.532,-0.211 2.099,-0.634c0.568,-0.422 0.997,-1.102 1.287,-2.04Zm0.303,-4.997c-0.038,-1.431 -0.436,-2.519 -1.192,-3.264c-0.757,-0.745 -1.678,-1.117 -2.762,-1.117c-1.161,0 -2.119,0.393 -2.876,1.179c-0.757,0.786 -1.129,1.853 -1.116,3.202l7.946,-0Z" style="fill:#f1f2f6;fill-rule:nonzero;stroke:#f1f2f6;stroke-opacity:0.28;stroke-width:0.64px;"/><path d="M74.474,62.408l5.448,-0.493c0.328,1.701 0.993,2.95 1.996,3.747c1.002,0.798 2.355,1.197 4.058,1.197c1.803,-0 3.162,-0.355 4.077,-1.065c0.914,-0.709 1.371,-1.539 1.371,-2.489c0,-0.61 -0.192,-1.129 -0.577,-1.557c-0.385,-0.428 -1.056,-0.801 -2.015,-1.117c-0.655,-0.212 -2.15,-0.587 -4.483,-1.126c-3.002,-0.692 -5.108,-1.543 -6.319,-2.552c-1.702,-1.419 -2.554,-3.149 -2.554,-5.19c0,-1.313 0.401,-2.542 1.202,-3.686c0.8,-1.143 1.954,-2.014 3.462,-2.612c1.507,-0.599 3.326,-0.898 5.457,-0.898c3.481,0 6.101,0.71 7.861,2.129c1.759,1.419 2.683,3.314 2.771,5.683l-5.599,0.229c-0.24,-1.326 -0.754,-2.279 -1.542,-2.859c-0.789,-0.581 -1.971,-0.871 -3.547,-0.871c-1.627,-0 -2.901,0.311 -3.822,0.932c-0.593,0.399 -0.889,0.933 -0.889,1.601c0,0.61 0.277,1.132 0.832,1.566c0.707,0.551 2.422,1.126 5.146,1.724c2.724,0.599 4.739,1.217 6.044,1.857c1.306,0.639 2.327,1.513 3.065,2.621c0.738,1.108 1.107,2.478 1.107,4.108c-0,1.478 -0.442,2.862 -1.324,4.152c-0.883,1.291 -2.132,2.249 -3.746,2.877c-1.615,0.628 -3.626,0.941 -6.035,0.941c-3.506,0 -6.199,-0.753 -8.078,-2.261c-1.879,-1.507 -3.002,-3.703 -3.367,-6.588Z" style="fill:#f1f2f6;fill-rule:nonzero;stroke:#f1f2f6;stroke-opacity:0.28;stroke-width:0.64px;"/><path d="M96.472,52.115l5.657,0l4.805,13.266l4.692,-13.266l5.505,0l-7.094,17.981l-1.268,3.255c-0.467,1.091 -0.911,1.924 -1.334,2.498c-0.422,0.575 -0.908,1.041 -1.456,1.399c-0.549,0.358 -1.224,0.636 -2.025,0.836c-0.8,0.199 -1.705,0.299 -2.714,0.299c-1.022,-0 -2.025,-0.1 -3.008,-0.299l-0.473,-3.871c0.832,0.153 1.583,0.229 2.251,0.229c1.236,-0 2.15,-0.337 2.743,-1.012c0.593,-0.674 1.047,-1.533 1.362,-2.577l-7.643,-18.738Z" style="fill:#f1f2f6;fill-rule:nonzero;stroke:#f1f2f6;stroke-opacity:0.28;stroke-width:0.64px;"/><path d="M135.324,70.8l-5.316,-0l-0,-9.536c-0,-2.018 -0.114,-3.322 -0.341,-3.915c-0.227,-0.592 -0.595,-1.052 -1.106,-1.381c-0.511,-0.328 -1.126,-0.492 -1.845,-0.492c-0.92,-0 -1.747,0.234 -2.478,0.703c-0.732,0.469 -1.233,1.091 -1.504,1.865c-0.271,0.774 -0.407,2.205 -0.407,4.293l0,8.463l-5.316,-0l0,-18.685l4.938,0l-0,2.745c1.753,-2.112 3.96,-3.167 6.621,-3.167c1.173,-0 2.245,0.196 3.216,0.589c0.971,0.393 1.706,0.895 2.204,1.505c0.498,0.609 0.845,1.301 1.041,2.076c0.195,0.774 0.293,1.882 0.293,3.325l-0,11.612Z" style="fill:#f1f2f6;fill-rule:nonzero;stroke:#f1f2f6;stroke-opacity:0.28;stroke-width:0.64px;"/><path d="M153.968,57.64l-5.24,0.879c-0.177,-0.973 -0.577,-1.706 -1.202,-2.199c-0.624,-0.493 -1.434,-0.739 -2.431,-0.739c-1.324,0 -2.38,0.425 -3.168,1.276c-0.789,0.85 -1.183,2.272 -1.183,4.266c0,2.217 0.401,3.783 1.202,4.698c0.8,0.915 1.876,1.372 3.225,1.372c1.009,0 1.835,-0.267 2.478,-0.8c0.644,-0.534 1.098,-1.452 1.362,-2.754l5.222,0.827c-0.543,2.229 -1.583,3.912 -3.122,5.049c-1.538,1.138 -3.6,1.707 -6.186,1.707c-2.939,0 -5.281,-0.862 -7.028,-2.586c-1.747,-1.724 -2.62,-4.111 -2.62,-7.161c-0,-3.085 0.876,-5.486 2.63,-7.205c1.753,-1.718 4.124,-2.577 7.113,-2.577c2.446,-0 4.392,0.49 5.836,1.469c1.444,0.979 2.481,2.472 3.112,4.478Z" style="fill:#f1f2f6;fill-rule:nonzero;stroke:#f1f2f6;stroke-opacity:0.28;stroke-width:0.64px;"/><path d="M231.992,53.743l2.712,14.753l-14.922,-1.527l12.21,-13.226Z" style="fill:#f1f2f6;"/><path d="M24.165,68.496c-0,-0 44.09,-44.068 103.485,-46.756c30.63,-1.386 66.413,10.634 100,40.244" style="fill:none;stroke:#f1f2f6;stroke-width:4px;stroke-linecap:round;stroke-miterlimit:1.5;"/><path d="M23.593,90.073l-1.96,-14.871l14.826,2.283l-12.866,12.588Z" style="fill:#f1f2f6;"/><path d="M232.173,75.202c-0,0 -44.091,46.33 -103.485,49.311c-30.733,1.542 -66.655,-9.643 -100.341,-42.449" style="fill:none;stroke:#f1f2f6;stroke-width:4px;stroke-linecap:round;stroke-miterlimit:1.5;"/></svg>